<svg xmlns="http://www.w3.org/2000/svg" height="340.000000" width="423.000000" viewBox="0 0 423.000000 340.000000">
  <rect fill="white" height="340.000000" width="423.000000"></rect>
  <line stroke-width="0.500000" stroke="black" x2="18.000000" x1="18.000000" y2="320.000000" y1="300.000000"></line>
  <circle r="3" fill="black" cy="300.000000" cx="18.000000"></circle>
  <circle r="3" fill="black" cy="320.000000" cx="18.000000"></circle>
  <line stroke-width="0.500000" stroke="black" x2="18.000000" x1="18.000000" y2="280.000000" y1="260.000000"></line>
  <circle r="3" fill="black" cy="260.000000" cx="18.000000"></circle>
  <circle r="3" fill="black" cy="280.000000" cx="18.000000"></circle>
  <line stroke-width="0.500000" stroke="black" x2="18.000000" x1="18.000000" y2="240.000000" y1="220.000000"></line>
  <circle r="3" fill="black" cy="220.000000" cx="18.000000"></circle>
  <circle r="3" fill="black" cy="240.000000" cx="18.000000"></circle>
  <line stroke-width="0.500000" stroke="black" x2="18.000000" x1="18.000000" y2="200.000000" y1="180.000000"></line>
  <circle r="3" fill="black" cy="180.000000" cx="18.000000"></circle>
  <circle r="3" fill="black" cy="200.000000" cx="18.000000"></circle>
  <line stroke-width="0.500000" stroke="black" x2="18.000000" x1="18.000000" y2="160.000000" y1="140.000000"></line>
  <circle r="3" fill="black" cy="140.000000" cx="18.000000"></circle>
  <circle r="3" fill="black" cy="160.000000" cx="18.000000"></circle>
  <line stroke-width="0.500000" stroke="black" x2="18.000000" x1="18.000000" y2="120.000000" y1="100.000000"></line>
  <circle r="3" fill="black" cy="100.000000" cx="18.000000"></circle>
  <circle r="3" fill="black" cy="120.000000" cx="18.000000"></circle>
  <line stroke-width="0.500000" stroke="black" x2="18.000000" x1="18.000000" y2="80.000000" y1="60.000000"></line>
  <circle r="3" fill="black" cy="60.000000" cx="18.000000"></circle>
  <circle r="3" fill="black" cy="80.000000" cx="18.000000"></circle>
  <line stroke-width="0.500000" stroke="black" x2="18.000000" x1="18.000000" y2="40.000000" y1="20.000000"></line>
  <circle r="3" fill="black" cy="20.000000" cx="18.000000"></circle>
  <circle r="3" fill="black" cy="40.000000" cx="18.000000"></circle>
  <line stroke-width="0.500000" stroke="black" x2="54.000000" x1="54.000000" y2="320.000000" y1="280.000000"></line>
  <circle r="3" fill="black" cy="280.000000" cx="54.000000"></circle>
  <circle r="3" fill="black" cy="320.000000" cx="54.000000"></circle>
  <line stroke-width="0.500000" stroke="black" x2="54.000000" x1="54.000000" y2="240.000000" y1="200.000000"></line>
  <circle r="3" fill="black" cy="200.000000" cx="54.000000"></circle>
  <circle r="3" fill="black" cy="240.000000" cx="54.000000"></circle>
  <line stroke-width="0.500000" stroke="black" x2="54.000000" x1="54.000000" y2="160.000000" y1="120.000000"></line>
  <circle r="3" fill="black" cy="120.000000" cx="54.000000"></circle>
  <circle r="3" fill="black" cy="160.000000" cx="54.000000"></circle>
  <line stroke-width="0.500000" stroke="black" x2="54.000000" x1="54.000000" y2="80.000000" y1="40.000000"></line>
  <circle r="3" fill="black" cy="40.000000" cx="54.000000"></circle>
  <circle r="3" fill="black" cy="80.000000" cx="54.000000"></circle>
  <line stroke-width="0.500000" stroke="black" x2="45.000000" x1="45.000000" y2="300.000000" y1="260.000000"></line>
  <circle r="3" fill="black" cy="260.000000" cx="45.000000"></circle>
  <circle r="3" fill="black" cy="300.000000" cx="45.000000"></circle>
  <line stroke-width="0.500000" stroke="black" x2="45.000000" x1="45.000000" y2="220.000000" y1="180.000000"></line>
  <circle r="3" fill="black" cy="180.000000" cx="45.000000"></circle>
  <circle r="3" fill="black" cy="220.000000" cx="45.000000"></circle>
  <line stroke-width="0.500000" stroke="black" x2="45.000000" x1="45.000000" y2="140.000000" y1="100.000000"></line>
  <circle r="3" fill="black" cy="100.000000" cx="45.000000"></circle>
  <circle r="3" fill="black" cy="140.000000" cx="45.000000"></circle>
  <line stroke-width="0.500000" stroke="black" x2="45.000000" x1="45.000000" y2="60.000000" y1="20.000000"></line>
  <circle r="3" fill="black" cy="20.000000" cx="45.000000"></circle>
  <circle r="3" fill="black" cy="60.000000" cx="45.000000"></circle>
  <line stroke-width="0.500000" stroke="black" x2="99.000000" x1="99.000000" y2="320.000000" y1="240.000000"></line>
  <circle r="3" fill="black" cy="240.000000" cx="99.000000"></circle>
  <circle r="3" fill="black" cy="320.000000" cx="99.000000"></circle>
  <line stroke-width="0.500000" stroke="black" x2="99.000000" x1="99.000000" y2="160.000000" y1="80.000000"></line>
  <circle r="3" fill="black" cy="80.000000" cx="99.000000"></circle>
  <circle r="3" fill="black" cy="160.000000" cx="99.000000"></circle>
  <line stroke-width="0.500000" stroke="black" x2="90.000000" x1="90.000000" y2="260.000000" y1="180.000000"></line>
  <circle r="3" fill="black" cy="180.000000" cx="90.000000"></circle>
  <circle r="3" fill="black" cy="260.000000" cx="90.000000"></circle>
  <line stroke-width="0.500000" stroke="black" x2="90.000000" x1="90.000000" y2="100.000000" y1="20.000000"></line>
  <circle r="3" fill="black" cy="20.000000" cx="90.000000"></circle>
  <circle r="3" fill="black" cy="100.000000" cx="90.000000"></circle>
  <line stroke-width="0.500000" stroke="black" x2="81.000000" x1="81.000000" y2="300.000000" y1="280.000000"></line>
  <circle r="3" fill="black" cy="280.000000" cx="81.000000"></circle>
  <circle r="3" fill="black" cy="300.000000" cx="81.000000"></circle>
  <line stroke-width="0.500000" stroke="black" x2="81.000000" x1="81.000000" y2="220.000000" y1="200.000000"></line>
  <circle r="3" fill="black" cy="200.000000" cx="81.000000"></circle>
  <circle r="3" fill="black" cy="220.000000" cx="81.000000"></circle>
  <line stroke-width="0.500000" stroke="black" x2="81.000000" x1="81.000000" y2="140.000000" y1="120.000000"></line>
  <circle r="3" fill="black" cy="120.000000" cx="81.000000"></circle>
  <circle r="3" fill="black" cy="140.000000" cx="81.000000"></circle>
  <line stroke-width="0.500000" stroke="black" x2="81.000000" x1="81.000000" y2="60.000000" y1="40.000000"></line>
  <circle r="3" fill="black" cy="40.000000" cx="81.000000"></circle>
  <circle r="3" fill="black" cy="60.000000" cx="81.000000"></circle>
  <line stroke-width="0.500000" stroke="black" x2="135.000000" x1="135.000000" y2="300.000000" y1="220.000000"></line>
  <circle r="3" fill="black" cy="220.000000" cx="135.000000"></circle>
  <circle r="3" fill="black" cy="300.000000" cx="135.000000"></circle>
  <line stroke-width="0.500000" stroke="black" x2="135.000000" x1="135.000000" y2="140.000000" y1="60.000000"></line>
  <circle r="3" fill="black" cy="60.000000" cx="135.000000"></circle>
  <circle r="3" fill="black" cy="140.000000" cx="135.000000"></circle>
  <line stroke-width="0.500000" stroke="black" x2="126.000000" x1="126.000000" y2="280.000000" y1="200.000000"></line>
  <circle r="3" fill="black" cy="200.000000" cx="126.000000"></circle>
  <circle r="3" fill="black" cy="280.000000" cx="126.000000"></circle>
  <line stroke-width="0.500000" stroke="black" x2="126.000000" x1="126.000000" y2="120.000000" y1="40.000000"></line>
  <circle r="3" fill="black" cy="40.000000" cx="126.000000"></circle>
  <circle r="3" fill="black" cy="120.000000" cx="126.000000"></circle>
  <line stroke-width="0.500000" stroke="black" x2="189.000000" x1="189.000000" y2="320.000000" y1="160.000000"></line>
  <circle r="3" fill="black" cy="160.000000" cx="189.000000"></circle>
  <circle r="3" fill="black" cy="320.000000" cx="189.000000"></circle>
  <line stroke-width="0.500000" stroke="black" x2="180.000000" x1="180.000000" y2="180.000000" y1="20.000000"></line>
  <circle r="3" fill="black" cy="20.000000" cx="180.000000"></circle>
  <circle r="3" fill="black" cy="180.000000" cx="180.000000"></circle>
  <line stroke-width="0.500000" stroke="black" x2="171.000000" x1="171.000000" y2="280.000000" y1="240.000000"></line>
  <circle r="3" fill="black" cy="240.000000" cx="171.000000"></circle>
  <circle r="3" fill="black" cy="280.000000" cx="171.000000"></circle>
  <line stroke-width="0.500000" stroke="black" x2="171.000000" x1="171.000000" y2="120.000000" y1="80.000000"></line>
  <circle r="3" fill="black" cy="80.000000" cx="171.000000"></circle>
  <circle r="3" fill="black" cy="120.000000" cx="171.000000"></circle>
  <line stroke-width="0.500000" stroke="black" x2="162.000000" x1="162.000000" y2="260.000000" y1="220.000000"></line>
  <circle r="3" fill="black" cy="220.000000" cx="162.000000"></circle>
  <circle r="3" fill="black" cy="260.000000" cx="162.000000"></circle>
  <line stroke-width="0.500000" stroke="black" x2="162.000000" x1="162.000000" y2="100.000000" y1="60.000000"></line>
  <circle r="3" fill="black" cy="60.000000" cx="162.000000"></circle>
  <circle r="3" fill="black" cy="100.000000" cx="162.000000"></circle>
  <line stroke-width="0.500000" stroke="black" x2="216.000000" x1="216.000000" y2="300.000000" y1="280.000000"></line>
  <circle r="3" fill="black" cy="280.000000" cx="216.000000"></circle>
  <circle r="3" fill="black" cy="300.000000" cx="216.000000"></circle>
  <line stroke-width="0.500000" stroke="black" x2="216.000000" x1="216.000000" y2="260.000000" y1="240.000000"></line>
  <circle r="3" fill="black" cy="240.000000" cx="216.000000"></circle>
  <circle r="3" fill="black" cy="260.000000" cx="216.000000"></circle>
  <line stroke-width="0.500000" stroke="black" x2="216.000000" x1="216.000000" y2="220.000000" y1="200.000000"></line>
  <circle r="3" fill="black" cy="200.000000" cx="216.000000"></circle>
  <circle r="3" fill="black" cy="220.000000" cx="216.000000"></circle>
  <line stroke-width="0.500000" stroke="black" x2="216.000000" x1="216.000000" y2="140.000000" y1="120.000000"></line>
  <circle r="3" fill="black" cy="120.000000" cx="216.000000"></circle>
  <circle r="3" fill="black" cy="140.000000" cx="216.000000"></circle>
  <line stroke-width="0.500000" stroke="black" x2="216.000000" x1="216.000000" y2="100.000000" y1="80.000000"></line>
  <circle r="3" fill="black" cy="80.000000" cx="216.000000"></circle>
  <circle r="3" fill="black" cy="100.000000" cx="216.000000"></circle>
  <line stroke-width="0.500000" stroke="black" x2="216.000000" x1="216.000000" y2="60.000000" y1="40.000000"></line>
  <circle r="3" fill="black" cy="40.000000" cx="216.000000"></circle>
  <circle r="3" fill="black" cy="60.000000" cx="216.000000"></circle>
  <line stroke-width="0.500000" stroke="black" x2="288.000000" x1="288.000000" y2="300.000000" y1="140.000000"></line>
  <circle r="3" fill="black" cy="140.000000" cx="288.000000"></circle>
  <circle r="3" fill="black" cy="300.000000" cx="288.000000"></circle>
  <line stroke-width="0.500000" stroke="black" x2="279.000000" x1="279.000000" y2="280.000000" y1="120.000000"></line>
  <circle r="3" fill="black" cy="120.000000" cx="279.000000"></circle>
  <circle r="3" fill="black" cy="280.000000" cx="279.000000"></circle>
  <line stroke-width="0.500000" stroke="black" x2="270.000000" x1="270.000000" y2="260.000000" y1="100.000000"></line>
  <circle r="3" fill="black" cy="100.000000" cx="270.000000"></circle>
  <circle r="3" fill="black" cy="260.000000" cx="270.000000"></circle>
  <line stroke-width="0.500000" stroke="black" x2="261.000000" x1="261.000000" y2="240.000000" y1="80.000000"></line>
  <circle r="3" fill="black" cy="80.000000" cx="261.000000"></circle>
  <circle r="3" fill="black" cy="240.000000" cx="261.000000"></circle>
  <line stroke-width="0.500000" stroke="black" x2="252.000000" x1="252.000000" y2="220.000000" y1="60.000000"></line>
  <circle r="3" fill="black" cy="60.000000" cx="252.000000"></circle>
  <circle r="3" fill="black" cy="220.000000" cx="252.000000"></circle>
  <line stroke-width="0.500000" stroke="black" x2="243.000000" x1="243.000000" y2="200.000000" y1="40.000000"></line>
  <circle r="3" fill="black" cy="40.000000" cx="243.000000"></circle>
  <circle r="3" fill="black" cy="200.000000" cx="243.000000"></circle>
  <line stroke-width="0.500000" stroke="black" x2="342.000000" x1="342.000000" y2="240.000000" y1="160.000000"></line>
  <circle r="3" fill="black" cy="160.000000" cx="342.000000"></circle>
  <circle r="3" fill="black" cy="240.000000" cx="342.000000"></circle>
  <line stroke-width="0.500000" stroke="black" x2="333.000000" x1="333.000000" y2="220.000000" y1="140.000000"></line>
  <circle r="3" fill="black" cy="140.000000" cx="333.000000"></circle>
  <circle r="3" fill="black" cy="220.000000" cx="333.000000"></circle>
  <line stroke-width="0.500000" stroke="black" x2="324.000000" x1="324.000000" y2="200.000000" y1="120.000000"></line>
  <circle r="3" fill="black" cy="120.000000" cx="324.000000"></circle>
  <circle r="3" fill="black" cy="200.000000" cx="324.000000"></circle>
  <line stroke-width="0.500000" stroke="black" x2="315.000000" x1="315.000000" y2="180.000000" y1="100.000000"></line>
  <circle r="3" fill="black" cy="100.000000" cx="315.000000"></circle>
  <circle r="3" fill="black" cy="180.000000" cx="315.000000"></circle>
  <line stroke-width="0.500000" stroke="black" x2="378.000000" x1="378.000000" y2="280.000000" y1="240.000000"></line>
  <circle r="3" fill="black" cy="240.000000" cx="378.000000"></circle>
  <circle r="3" fill="black" cy="280.000000" cx="378.000000"></circle>
  <line stroke-width="0.500000" stroke="black" x2="378.000000" x1="378.000000" y2="200.000000" y1="160.000000"></line>
  <circle r="3" fill="black" cy="160.000000" cx="378.000000"></circle>
  <circle r="3" fill="black" cy="200.000000" cx="378.000000"></circle>
  <line stroke-width="0.500000" stroke="black" x2="378.000000" x1="378.000000" y2="120.000000" y1="80.000000"></line>
  <circle r="3" fill="black" cy="80.000000" cx="378.000000"></circle>
  <circle r="3" fill="black" cy="120.000000" cx="378.000000"></circle>
  <line stroke-width="0.500000" stroke="black" x2="369.000000" x1="369.000000" y2="260.000000" y1="220.000000"></line>
  <circle r="3" fill="black" cy="220.000000" cx="369.000000"></circle>
  <circle r="3" fill="black" cy="260.000000" cx="369.000000"></circle>
  <line stroke-width="0.500000" stroke="black" x2="369.000000" x1="369.000000" y2="180.000000" y1="140.000000"></line>
  <circle r="3" fill="black" cy="140.000000" cx="369.000000"></circle>
  <circle r="3" fill="black" cy="180.000000" cx="369.000000"></circle>
  <line stroke-width="0.500000" stroke="black" x2="369.000000" x1="369.000000" y2="100.000000" y1="60.000000"></line>
  <circle r="3" fill="black" cy="60.000000" cx="369.000000"></circle>
  <circle r="3" fill="black" cy="100.000000" cx="369.000000"></circle>
  <line stroke-width="0.500000" stroke="black" x2="405.000000" x1="405.000000" y2="300.000000" y1="280.000000"></line>
  <circle r="3" fill="black" cy="280.000000" cx="405.000000"></circle>
  <circle r="3" fill="black" cy="300.000000" cx="405.000000"></circle>
  <line stroke-width="0.500000" stroke="black" x2="405.000000" x1="405.000000" y2="260.000000" y1="240.000000"></line>
  <circle r="3" fill="black" cy="240.000000" cx="405.000000"></circle>
  <circle r="3" fill="black" cy="260.000000" cx="405.000000"></circle>
  <line stroke-width="0.500000" stroke="black" x2="405.000000" x1="405.000000" y2="220.000000" y1="200.000000"></line>
  <circle r="3" fill="black" cy="200.000000" cx="405.000000"></circle>
  <circle r="3" fill="black" cy="220.000000" cx="405.000000"></circle>
  <line stroke-width="0.500000" stroke="black" x2="405.000000" x1="405.000000" y2="180.000000" y1="160.000000"></line>
  <circle r="3" fill="black" cy="160.000000" cx="405.000000"></circle>
  <circle r="3" fill="black" cy="180.000000" cx="405.000000"></circle>
  <line stroke-width="0.500000" stroke="black" x2="405.000000" x1="405.000000" y2="140.000000" y1="120.000000"></line>
  <circle r="3" fill="black" cy="120.000000" cx="405.000000"></circle>
  <circle r="3" fill="black" cy="140.000000" cx="405.000000"></circle>
  <line stroke-width="0.500000" stroke="black" x2="405.000000" x1="405.000000" y2="100.000000" y1="80.000000"></line>
  <circle r="3" fill="black" cy="80.000000" cx="405.000000"></circle>
  <circle r="3" fill="black" cy="100.000000" cx="405.000000"></circle>
  <line stroke-width="0.500000" stroke="black" x2="405.000000" x1="405.000000" y2="60.000000" y1="40.000000"></line>
  <circle r="3" fill="black" cy="40.000000" cx="405.000000"></circle>
  <circle r="3" fill="black" cy="60.000000" cx="405.000000"></circle>
  <line stroke-width="0.500000" stroke="black" x2="423.000000" x1="0" y2="20.000000" y1="20.000000"></line>
  <line stroke-width="0.500000" stroke="black" x2="423.000000" x1="0" y2="40.000000" y1="40.000000"></line>
  <line stroke-width="0.500000" stroke="black" x2="423.000000" x1="0" y2="60.000000" y1="60.000000"></line>
  <line stroke-width="0.500000" stroke="black" x2="423.000000" x1="0" y2="80.000000" y1="80.000000"></line>
  <line stroke-width="0.500000" stroke="black" x2="423.000000" x1="0" y2="100.000000" y1="100.000000"></line>
  <line stroke-width="0.500000" stroke="black" x2="423.000000" x1="0" y2="120.000000" y1="120.000000"></line>
  <line stroke-width="0.500000" stroke="black" x2="423.000000" x1="0" y2="140.000000" y1="140.000000"></line>
  <line stroke-width="0.500000" stroke="black" x2="423.000000" x1="0" y2="160.000000" y1="160.000000"></line>
  <line stroke-width="0.500000" stroke="black" x2="423.000000" x1="0" y2="180.000000" y1="180.000000"></line>
  <line stroke-width="0.500000" stroke="black" x2="423.000000" x1="0" y2="200.000000" y1="200.000000"></line>
  <line stroke-width="0.500000" stroke="black" x2="423.000000" x1="0" y2="220.000000" y1="220.000000"></line>
  <line stroke-width="0.500000" stroke="black" x2="423.000000" x1="0" y2="240.000000" y1="240.000000"></line>
  <line stroke-width="0.500000" stroke="black" x2="423.000000" x1="0" y2="260.000000" y1="260.000000"></line>
  <line stroke-width="0.500000" stroke="black" x2="423.000000" x1="0" y2="280.000000" y1="280.000000"></line>
  <line stroke-width="0.500000" stroke="black" x2="423.000000" x1="0" y2="300.000000" y1="300.000000"></line>
  <line stroke-width="0.500000" stroke="black" x2="423.000000" x1="0" y2="320.000000" y1="320.000000"></line>
</svg>
